<svg width="128" height="128" viewBox="0 0 128 128" fill="none" xmlns="http://www.w3.org/2000/svg">
<rect width="128" height="128" fill="#1B1B38"/>
<path d="M48.9833 79.9L33.0833 64L48.9833 48.1L55.1667 54.3937L45.5604 64L55.1667 73.6063L48.9833 79.9ZM79.0167 79.9L72.8333 73.6063L82.4396 64L72.8333 54.3937L79.0167 48.1L94.9167 64L79.0167 79.9ZM33.0833 103.75C30.6542 103.75 28.5747 102.885 26.8448 101.155C25.1149 99.4253 24.25 97.3458 24.25 94.9167V77.25H33.0833V94.9167H50.75V103.75H33.0833ZM77.25 103.75V94.9167H94.9167V77.25H103.75V94.9167C103.75 97.3458 102.885 99.4253 101.155 101.155C99.4253 102.885 97.3458 103.75 94.9167 103.75H77.25ZM24.25 50.75V33.0833C24.25 30.6542 25.1149 28.5747 26.8448 26.8448C28.5747 25.1149 30.6542 24.25 33.0833 24.25H50.75V33.0833H33.0833V50.75H24.25ZM94.9167 50.75V33.0833H77.25V24.25H94.9167C97.3458 24.25 99.4253 25.1149 101.155 26.8448C102.885 28.5747 103.75 30.6542 103.75 33.0833V50.75H94.9167Z" fill="url(#paint0_linear_61_3)"/>
<defs>
<linearGradient id="paint0_linear_61_3" x1="24" y1="24" x2="104" y2="104" gradientUnits="userSpaceOnUse">
<stop stop-color="#FBFF34"/>
<stop offset="1" stop-color="#FF3EBD"/>
</linearGradient>
</defs>
</svg>
